<?xml version="1.0" encoding="UTF-8"?>
<svg xmlns="http://www.w3.org/2000/svg" xmlns:xlink="http://www.w3.org/1999/xlink" width="50px" height="50px" viewBox="0 0 50 50" version="1.1">
<g id="surface1">
<path style=" stroke:none;fill-rule:nonzero;fill:rgb(0%,32.156863%,26.27451%);fill-opacity:1;" d="M 23.253906 33.945312 L 24.050781 25.214844 C 24.050781 25.214844 8.933594 24.320312 4.273438 11.730469 C 19.941406 4.433594 24.90625 23.167969 24.90625 23.167969 C 24.90625 23.167969 28.425781 2.894531 43.683594 3.359375 C 44.683594 23.347656 25.851562 25.148438 25.851562 25.148438 L 26.585938 34.011719 Z M 23.253906 33.945312 "/>
<path style=" stroke:none;fill-rule:nonzero;fill:rgb(42.745098%,23.529412%,19.607843%);fill-opacity:1;" d="M 10.460938 32.675781 L 40.171875 33.742188 C 40.171875 33.742188 40.90625 49.039062 25.183594 48.398438 C 8.191406 47.707031 10.460938 32.675781 10.460938 32.675781 Z M 10.460938 32.675781 "/>
<path style=" stroke:none;fill-rule:nonzero;fill:rgb(27.843137%,53.333333%,36.862745%);fill-opacity:1;" d="M 24.96875 24.777344 L 24.183594 23.882812 L 16.601562 19.125 L 24.996094 24.984375 L 34.871094 14.230469 L 25.601562 23.777344 Z M 24.96875 24.777344 "/>
<path style=" stroke:none;fill-rule:nonzero;fill:rgb(30.196078%,10.196078%,2.352941%);fill-opacity:1;" d="M 13.859375 32.742188 C 13.859375 32.742188 12.191406 43.738281 25.117188 45.269531 C 36.511719 46.070312 36.84375 33.742188 36.84375 33.742188 L 40.175781 33.945312 C 40.175781 33.945312 40.84375 49.402344 24.917969 48.402344 C 8.261719 47.800781 10.394531 32.609375 10.394531 32.609375 Z M 13.859375 32.742188 "/>
</g>
</svg>
